<?xml version="1.0" encoding="UTF-8"?>
<svg width="520px" height="554px" viewBox="0 0 520 554" version="1.1" xmlns="http://www.w3.org/2000/svg" xmlns:xlink="http://www.w3.org/1999/xlink">
    <!-- Generator: Sketch 57.1 (83088) - https://sketch.com -->
    <title>spider</title>
    <desc>Created with Sketch.</desc>
    <g id="Page-1" stroke="none" stroke-width="1" fill="none" fill-rule="evenodd">
        <g id="spider" transform="translate(260.000000, 277.000000) scale(1, -1) translate(-260.000000, -277.000000) " fill-rule="nonzero">
            <polygon id="Path" fill="#2D292A" points="227 487 195 487 195 389.5 227 357"></polygon>
            <polygon id="Path" fill="#2D292A" points="146 309 0 309 0 97 32.4439739 97 32.4439739 276.551021 146 276.551021"></polygon>
            <polygon id="Path" fill="#2D292A" points="146 244 65 244 65 0 97.3991553 0 97.3991553 211.61062 146 211.61062"></polygon>
            <polygon id="Path" fill="#000000" points="520 309 374 309 374 276.551021 487.555086 276.551021 487.555086 97 520 97"></polygon>
            <polygon id="Path" fill="#000000" points="455 244 374 244 374 211.61062 422.599154 211.61062 422.599154 0 455 0"></polygon>
            <polygon id="Path" fill="#000000" points="389.857143 341 379 373.349398 422.428571 373.349398 422.428571 520 455 520 455 341"></polygon>
            <polygon id="Path" fill="#000000" points="260 341 260 373.44898 357.5 373.44898 357.5 553 390 553 390 341"></polygon>
            <polygon id="Path" fill="#2D292A" points="66 341 66 520 98.2214446 520 98.2214446 373.349398 153 373.349398 131.519038 341"></polygon>
            <polygon id="Path" fill="#2D292A" points="131 341 131 554 163.521543 554 163.521543 373.436227 260 373.436227 260 341"></polygon>
            <polygon id="Path" fill="#000000" points="325 487 293 487 293 357 325 389.5"></polygon>
            <path d="M228,331 L260.333333,455 C295.990694,455 325,425.978184 325,390.305448 L325,331 L228,331 Z" id="Path" fill="#8C4040"></path>
            <path d="M195,331 L195,390.305448 C195,425.978184 224.158839,455 260,455 L260,331 L195,331 Z" id="Path" fill="#B05555"></path>
            <path d="M325.199999,116 L228,276.178154 L260.4,373 L309.002113,373 C353.664657,373 390,336.806019 390,292.317233 L390,227.769336 C390,180.084734 363.906693,138.358077 325.199999,116 Z" id="Path" fill="#000000"></path>
            <path d="M195,116 C156.173842,138.358077 130,180.084734 130,227.769336 L130,292.317233 C130,336.806019 166.447489,373 211.25212,373 L260,373 L260,276.178154 L195,116 Z" id="Path" fill="#2D292A"></path>
            <path d="M325,244.076272 L325,115.427342 C305.966993,104.348381 283.875712,98 260.333333,98 L228,203.5 L260.333333,309 C295.990694,309 325,279.875377 325,244.076272 Z" id="Path" fill="#8C4040"></path>
            <path d="M260,309 L260,98 C236.336269,98 214.135355,104.348381 195,115.427342 L195,244.076272 C195,279.875377 224.158839,309 260,309 Z" id="Path" fill="#B05555"></path>
        </g>
    </g>
</svg>